<svg xmlns="http://www.w3.org/2000/svg" width="380" height="215" viewBox="0 0 380 215"><rect width="100%" height="100%" fill="#fff5ee"/><path d="M80.545 105.305h2.82q1.03 0 1.8-.26.77-.25 1.29-.74.51-.48.76-1.17.25-.7.25-1.55 0-.81-.25-1.47-.25-.66-.76-1.12-.5-.46-1.27-.71-.77-.24-1.82-.24h-2.82v7.26Zm-3.76-10.17h6.58q2.03 0 3.51.47 1.49.48 2.45 1.33.97.86 1.44 2.05t.47 2.6q0 1.47-.49 2.69-.49 1.23-1.47 2.11-.98.88-2.46 1.37-1.48.49-3.45.49h-2.82v7.13h-3.76v-20.24Zm16.83-.56h3.45v20.8h-3.45v-20.8Zm14.5 17.09v-2.42q-1.5.07-2.52.26t-1.64.48q-.61.29-.88.69-.27.39-.27.85 0 .91.54 1.3t1.41.39q1.06 0 1.84-.38.78-.39 1.52-1.17Zm-7.31-7.55-.61-1.1q2.47-2.27 5.96-2.27 1.26 0 2.25.41 1 .42 1.68 1.15.69.74 1.05 1.76.35 1.02.35 2.24v9.07h-1.56q-.49 0-.76-.15-.27-.14-.42-.59l-.31-1.04q-.54.49-1.06.86t-1.08.63q-.56.25-1.2.38-.63.13-1.4.13-.91 0-1.68-.24-.77-.25-1.33-.74t-.87-1.21q-.31-.73-.31-1.7 0-.54.18-1.08t.6-1.03q.41-.49 1.07-.93.66-.43 1.62-.75.95-.32 2.23-.53 1.27-.2 2.91-.24v-.84q0-1.44-.62-2.14-.61-.69-1.77-.69-.84 0-1.4.2-.55.19-.97.44-.42.24-.76.44-.35.19-.77.19-.36 0-.61-.18-.25-.19-.41-.45Zm25.13-1.33-.91 1.26q-.15.2-.3.31-.15.11-.43.11-.26 0-.51-.16-.26-.16-.61-.36-.35-.2-.83-.36-.48-.17-1.2-.17-.91 0-1.59.33-.69.33-1.14.95-.46.61-.68 1.49-.23.87-.23 1.98 0 1.15.25 2.04.24.9.71 1.51.46.61 1.12.92.65.32 1.48.32t1.34-.21q.51-.2.86-.44.35-.25.61-.45t.58-.2q.42 0 .63.32l.99 1.26q-.57.67-1.24 1.12-.68.46-1.4.73-.72.28-1.48.39-.76.11-1.52.11-1.33 0-2.51-.5-1.17-.49-2.05-1.45-.89-.95-1.4-2.33-.51-1.38-.51-3.14 0-1.58.46-2.93.45-1.35 1.33-2.34.89-.99 2.19-1.55 1.3-.56 2.99-.56 1.61 0 2.83.52 1.21.52 2.17 1.48Zm5.03 3.76h6.52q0-.68-.19-1.27-.19-.6-.56-1.04-.38-.45-.96-.71-.58-.26-1.35-.26-1.5 0-2.36.85-.86.86-1.1 2.43Zm8.82 2.08h-8.89q.08 1.11.39 1.91.31.81.81 1.33.51.53 1.2.79t1.53.26q.84 0 1.45-.2t1.07-.43q.45-.24.79-.44.35-.19.67-.19.43 0 .64.32l1 1.26q-.58.67-1.29 1.12-.72.46-1.49.73-.78.28-1.58.39-.81.11-1.57.11-1.49 0-2.78-.5-1.29-.49-2.24-1.47-.95-.97-1.5-2.41-.55-1.43-.55-3.32 0-1.47.48-2.77.48-1.29 1.37-2.25.88-.96 2.17-1.52 1.28-.56 2.89-.56 1.35 0 2.5.44 1.15.43 1.98 1.26.82.84 1.29 2.05.47 1.21.47 2.76 0 .79-.17 1.06t-.64.27Zm6.86-14.05v7.98q.84-.79 1.85-1.28 1-.49 2.36-.49 1.18 0 2.09.4.91.4 1.52 1.12.61.72.92 1.72.32 1 .32 2.21v9.14h-3.46v-9.14q0-1.32-.6-2.04-.61-.72-1.84-.72-.89 0-1.68.41-.78.4-1.48 1.1v10.39h-3.46v-20.8h3.46Zm18.69 6.21q1.59 0 2.9.52 1.31.52 2.24 1.47.93.95 1.44 2.32.5 1.38.5 3.07 0 1.71-.5 3.08-.51 1.37-1.44 2.34-.93.96-2.24 1.48t-2.9.52q-1.61 0-2.93-.52-1.31-.52-2.24-1.48-.94-.97-1.45-2.34-.51-1.37-.51-3.08 0-1.69.51-3.07.51-1.37 1.45-2.32.93-.95 2.24-1.47 1.32-.52 2.93-.52Zm0 12.14q1.79 0 2.65-1.2.86-1.21.86-3.53 0-2.33-.86-3.54-.86-1.22-2.65-1.22-1.82 0-2.7 1.22-.87 1.23-.87 3.54t.87 3.52q.88 1.21 2.7 1.21Zm9.77-18.35h3.46v20.8h-3.46v-20.8Zm15.93 16.54v-6.44q-.59-.71-1.28-1-.69-.3-1.49-.3-.78 0-1.41.3-.63.29-1.08.89-.45.59-.69 1.51-.24.91-.24 2.16 0 1.26.21 2.14.2.87.58 1.42.38.56.92.8.55.25 1.22.25 1.08 0 1.83-.45.76-.45 1.43-1.28Zm0-16.54h3.46v20.8h-2.11q-.69 0-.87-.63l-.3-1.39q-.86 1-1.99 1.61-1.13.62-2.63.62-1.17 0-2.15-.49t-1.69-1.42q-.71-.93-1.09-2.3-.39-1.38-.39-3.14 0-1.6.44-2.97.43-1.37 1.24-2.38.82-1.01 1.95-1.57 1.13-.57 2.55-.57 1.2 0 2.06.38.85.38 1.52 1.02v-7.57Zm9.61 11.97h6.52q0-.68-.19-1.27-.19-.6-.57-1.04-.37-.45-.95-.71-.59-.26-1.36-.26-1.49 0-2.35.85-.87.86-1.1 2.43Zm8.82 2.08h-8.89q.08 1.11.39 1.91.31.81.81 1.33.5.53 1.2.79.69.26 1.53.26.84 0 1.45-.2t1.06-.43q.46-.24.8-.44.34-.19.67-.19.43 0 .64.32l.99 1.26q-.57.67-1.28 1.12-.72.46-1.49.73-.78.28-1.59.39-.8.11-1.56.11-1.5 0-2.78-.5-1.29-.49-2.24-1.47-.96-.97-1.5-2.41-.55-1.43-.55-3.32 0-1.47.48-2.77.47-1.29 1.36-2.25.89-.96 2.17-1.52 1.28-.56 2.89-.56 1.36 0 2.51.44 1.15.43 1.97 1.26.83.84 1.3 2.05.47 1.21.47 2.76 0 .79-.17 1.06t-.64.27Zm6.45-6.75.21 1.63q.67-1.29 1.6-2.02.92-.74 2.18-.74.99 0 1.6.43l-.23 2.59q-.07.26-.2.36-.13.11-.36.11-.21 0-.62-.07-.41-.07-.81-.07-.57 0-1.02.16-.45.17-.8.49-.36.31-.63.76-.28.45-.51 1.02v8.85h-3.46v-14.36h2.03q.53 0 .74.18.21.19.28.68Zm18.52-6.74v20.24h-3.78v-20.24h3.78Zm7.44 20.24h-3.46v-14.36h2.11q.67 0 .88.63l.23 1.06q.38-.42.79-.77.41-.35.88-.6.47-.25 1.01-.4.54-.15 1.18-.15 1.36 0 2.24.74.87.73 1.3 1.95.34-.71.84-1.23.51-.51 1.11-.83.6-.32 1.28-.47.68-.16 1.37-.16 1.19 0 2.11.37.92.36 1.55 1.06.63.7.96 1.71.33 1.01.33 2.31v9.14h-3.46v-9.14q0-1.37-.6-2.07-.6-.69-1.76-.69-.53 0-.99.18-.45.18-.8.53-.34.34-.54.86-.19.52-.19 1.19v9.14h-3.47v-9.14q0-1.44-.58-2.1-.59-.66-1.71-.66-.75 0-1.4.37-.65.37-1.21 1.02v10.51Zm27.58-3.71v-2.42q-1.5.07-2.52.26-1.03.19-1.64.48-.62.29-.88.69-.27.39-.27.85 0 .91.54 1.3t1.41.39q1.06 0 1.84-.38.77-.39 1.52-1.17Zm-7.31-7.55-.62-1.1q2.48-2.27 5.97-2.27 1.26 0 2.25.41.99.42 1.68 1.15.69.74 1.04 1.76.36 1.02.36 2.24v9.07h-1.57q-.49 0-.75-.15-.27-.14-.42-.59l-.31-1.04q-.55.49-1.07.86-.51.37-1.07.63-.56.25-1.2.38-.64.13-1.41.13-.91 0-1.68-.24-.77-.25-1.33-.74t-.87-1.21q-.3-.73-.3-1.7 0-.54.18-1.08t.59-1.03q.42-.49 1.07-.93.66-.43 1.62-.75.96-.32 2.23-.53 1.28-.2 2.92-.24v-.84q0-1.44-.62-2.14-.62-.69-1.78-.69-.84 0-1.39.2-.55.19-.97.44l-.77.44q-.34.19-.76.19-.36 0-.62-.18-.25-.19-.4-.45Zm19.18 3.73q.64 0 1.12-.18.47-.17.79-.48.31-.31.48-.74.16-.44.16-.95 0-1.07-.64-1.69-.64-.62-1.91-.62-1.28 0-1.91.62-.64.62-.64 1.69 0 .5.16.93.16.44.48.75.31.32.8.49.48.18 1.11.18Zm3.9 8.17q0-.42-.25-.68-.25-.27-.68-.42-.44-.14-1.02-.21-.58-.07-1.23-.11l-1.34-.06q-.7-.03-1.36-.11-.57.32-.93.75-.35.44-.35 1.01 0 .38.19.71.18.33.6.57.41.23 1.07.37.66.13 1.61.13.96 0 1.66-.15.7-.14 1.16-.4.45-.26.66-.62.21-.36.21-.78Zm-.68-14.51h4.13v1.28q0 .62-.74.76l-1.29.24q.29.74.29 1.62 0 1.07-.42 1.93-.43.86-1.19 1.46-.75.6-1.78.93-1.03.33-2.22.33-.42 0-.81-.04-.4-.04-.77-.11-.68.4-.68.91 0 .43.4.63.4.21 1.06.29.66.08 1.5.1.84.03 1.72.1t1.72.24q.84.18 1.5.55.66.38 1.06 1.03t.4 1.68q0 .95-.47 1.84-.47.9-1.36 1.6-.89.7-2.18 1.13-1.3.42-2.95.42-1.63 0-2.83-.31-1.2-.32-2-.84-.8-.53-1.19-1.21-.39-.69-.39-1.43 0-1.01.61-1.69.6-.68 1.67-1.08-.58-.3-.91-.79-.34-.49-.34-1.28 0-.33.12-.67t.35-.68q.23-.33.58-.64.35-.3.83-.53-1.09-.59-1.72-1.57-.62-.98-.62-2.3 0-1.06.43-1.92.42-.86 1.19-1.47.76-.61 1.8-.93 1.05-.33 2.28-.33.92 0 1.73.19.82.19 1.49.56Zm9.04 5.04h6.53q0-.68-.19-1.27-.19-.6-.57-1.04-.38-.45-.96-.71-.58-.26-1.35-.26-1.5 0-2.36.85-.86.86-1.1 2.43Zm8.82 2.08h-8.89q.09 1.11.39 1.91.31.81.82 1.33.5.53 1.19.79.7.26 1.54.26.84 0 1.45-.2.6-.2 1.06-.43.45-.24.8-.44.34-.19.66-.19.44 0 .65.32l.99 1.26q-.57.67-1.29 1.12-.71.46-1.49.73-.78.28-1.58.39-.81.11-1.56.11-1.5 0-2.79-.5-1.29-.49-2.24-1.47-.95-.97-1.5-2.41-.54-1.43-.54-3.32 0-1.47.47-2.77.48-1.29 1.37-2.25.89-.96 2.17-1.52 1.28-.56 2.89-.56 1.36 0 2.51.44 1.14.43 1.97 1.26.83.84 1.3 2.05.46 1.21.46 2.76 0 .79-.16 1.06-.17.27-.65.27Z"/></svg>